<svg xmlns="http://www.w3.org/2000/svg" xmlns:xlink="http://www.w3.org/1999/xlink" width="640" zoomAndPan="magnify" viewBox="0 0 480 479.999983" height="640" preserveAspectRatio="xMidYMid meet" version="1.0"><defs><clipPath id="3823c8f8c8"><path d="M 80 160 L 400 160 L 400 480 L 80 480 Z M 80 160 " clip-rule="nonzero"/></clipPath><clipPath id="02acf7ab8d"><path d="M 80.003906 399.230469 L 319.234375 159.996094 L 400.003906 240.761719 L 160.769531 479.996094 Z M 80.003906 399.230469 " clip-rule="nonzero"/></clipPath><clipPath id="75937d930d"><path d="M 80 0 L 400 0 L 400 320 L 80 320 Z M 80 0 " clip-rule="nonzero"/></clipPath><clipPath id="7afb488860"><path d="M 159.683594 0 L 400 240.316406 L 320.3125 320 L 80 79.683594 Z M 159.683594 0 " clip-rule="nonzero"/></clipPath></defs><g clip-path="url(#3823c8f8c8)"><g clip-path="url(#02acf7ab8d)"><path fill="#ffffff" d="M 80.003906 399.230469 L 319.144531 160.085938 L 399.914062 240.851562 L 160.769531 479.996094 Z M 80.003906 399.230469 " fill-opacity="1" fill-rule="nonzero"/></g></g><g clip-path="url(#75937d930d)"><g clip-path="url(#7afb488860)"><path fill="#ffffff" d="M 159.683594 0 L 399.980469 240.296875 L 320.296875 319.980469 L 80 79.683594 Z M 159.683594 0 " fill-opacity="1" fill-rule="nonzero"/></g></g></svg>