<svg xmlns="http://www.w3.org/2000/svg" xmlns:xlink="http://www.w3.org/1999/xlink" width="640" zoomAndPan="magnify" viewBox="0 0 480 479.999983" height="640" preserveAspectRatio="xMidYMid meet" version="1.0"><defs><clipPath id="ecdd3f6d25"><path d="M 80 160 L 400 160 L 400 480 L 80 480 Z M 80 160 " clip-rule="nonzero"/></clipPath><clipPath id="440ae5577b"><path d="M 319.230469 479.988281 L 79.996094 240.753906 L 160.761719 159.988281 L 399.996094 399.222656 Z M 319.230469 479.988281 " clip-rule="nonzero"/></clipPath><clipPath id="dfe7cf4043"><path d="M 80 0 L 400 0 L 400 320 L 80 320 Z M 80 0 " clip-rule="nonzero"/></clipPath><clipPath id="d34379e9e6"><path d="M 399.996094 79.683594 L 159.679688 320 L 79.996094 240.3125 L 320.3125 0 Z M 399.996094 79.683594 " clip-rule="nonzero"/></clipPath></defs><g clip-path="url(#ecdd3f6d25)"><g clip-path="url(#440ae5577b)"><path fill="#ffffff" d="M 319.230469 479.988281 L 80.085938 240.84375 L 160.851562 160.078125 L 399.996094 399.222656 Z M 319.230469 479.988281 " fill-opacity="1" fill-rule="nonzero"/></g></g><g clip-path="url(#dfe7cf4043)"><g clip-path="url(#d34379e9e6)"><path fill="#ffffff" d="M 399.996094 79.683594 L 159.699219 319.980469 L 80.015625 240.296875 L 320.3125 0 Z M 399.996094 79.683594 " fill-opacity="1" fill-rule="nonzero"/></g></g></svg>